<?xml version="1.0" encoding="UTF-8"?>
<!DOCTYPE svg PUBLIC "-//W3C//DTD SVG 1.1//EN" "http://www.w3.org/Graphics/SVG/1.1/DTD/svg11.dtd">
<svg xmlns="http://www.w3.org/2000/svg" version="1.1" width="1000px" height="426px" style="shape-rendering:geometricPrecision; text-rendering:geometricPrecision; image-rendering:optimizeQuality; fill-rule:evenodd; clip-rule:evenodd" xmlns:xlink="http://www.w3.org/1999/xlink">
<g><path style="opacity:1" fill="#000000" d="M -0.5,-0.5 C 332.833,-0.5 666.167,-0.5 999.5,-0.5C 999.5,141.5 999.5,283.5 999.5,425.5C 666.167,425.5 332.833,425.5 -0.5,425.5C -0.5,283.5 -0.5,141.5 -0.5,-0.5 Z"/></g>
<g><path style="opacity:1" fill="#010101" d="M 497.5,40.5 C 506.238,40.5338 514.905,41.3672 523.5,43C 546.166,46.9002 568.833,50.7336 591.5,54.5C 593.599,55.6118 595.933,56.2785 598.5,56.5C 597.295,92.3736 593.962,128.04 588.5,163.5C 586.234,185.365 577.068,203.698 561,218.5C 556.351,222.314 551.851,226.314 547.5,230.5C 547.167,228.833 546.833,227.167 546.5,225.5C 548.327,216.549 549.493,207.549 550,198.5C 546.853,196.699 543.687,194.866 540.5,193C 538.18,190.522 536.514,187.689 535.5,184.5C 536.145,180.322 538.312,176.989 542,174.5C 543.823,167.651 544.823,160.651 545,153.5C 546.734,152.751 548.567,152.251 550.5,152C 548.744,151.798 547.078,151.298 545.5,150.5C 545.863,149.817 546.196,149.15 546.5,148.5C 552.748,149.973 557.415,147.973 560.5,142.5C 556.878,141.341 553.211,141.175 549.5,142C 547.481,143.866 545.148,145.033 542.5,145.5C 538.844,144.341 535.177,143.174 531.5,142C 513.313,142.036 495.646,139.036 478.5,133C 477.29,131.961 476.29,130.794 475.5,129.5C 474.577,125.936 474.244,122.269 474.5,118.5C 474.748,114.256 476.081,110.422 478.5,107C 485.492,106.5 492.492,106.334 499.5,106.5C 499.509,104.692 499.009,103.025 498,101.5C 493.283,95.3813 488.117,89.7146 482.5,84.5C 482.414,83.5041 482.748,82.6708 483.5,82C 492.209,82.8217 498.209,79.3217 501.5,71.5C 508.12,65.5886 509.287,58.5886 505,50.5C 504.667,54.1667 504.333,57.8333 504,61.5C 503.338,62.9839 502.504,64.3172 501.5,65.5C 500.206,66.2899 499.039,67.2899 498,68.5C 496.8,58.1502 495.8,58.4836 495,69.5C 492.445,73.8667 488.612,76.3667 483.5,77C 478.78,77.7168 474.114,77.5502 469.5,76.5C 464.415,74.3038 459.582,71.6371 455,68.5C 454.148,64.4823 454.648,60.649 456.5,57C 456.138,55.7753 455.638,54.6086 455,53.5C 453.47,57.0901 452.136,60.7568 451,64.5C 449.333,65.8333 447.667,65.8333 446,64.5C 445.03,62.7262 444.196,60.8928 443.5,59C 445.956,55.257 448.289,51.4236 450.5,47.5C 466.022,44.1908 481.689,41.8574 497.5,40.5 Z"/></g>
<g><path style="opacity:1" fill="#020201" d="M 446.5,49.5 C 444.203,51.2941 442.037,53.2941 440,55.5C 439.755,59.443 440.755,63.1097 443,66.5C 446.306,69.5613 449.473,72.7279 452.5,76C 455.189,77.9242 458.189,79.0909 461.5,79.5C 463.781,80.3145 465.781,81.6478 467.5,83.5C 466,83.8333 464.5,84.1667 463,84.5C 459.71,84.1647 456.544,83.6647 453.5,83C 456.708,86.3771 460.042,89.5437 463.5,92.5C 454.52,104.77 448.853,118.437 446.5,133.5C 444.439,144.588 445.773,155.254 450.5,165.5C 448.831,171.174 446.331,176.507 443,181.5C 442.333,183.833 442.333,186.167 443,188.5C 445.535,194.408 448.702,199.908 452.5,205C 458.034,208.698 463.701,212.198 469.5,215.5C 469.833,215 470.167,214.5 470.5,214C 466.054,209.174 461.221,204.674 456,200.5C 454.672,197.688 453.172,195.022 451.5,192.5C 449.855,189.934 449.522,187.268 450.5,184.5C 454.811,181.855 458.478,178.521 461.5,174.5C 464.659,176.08 467.993,177.08 471.5,177.5C 471.842,178.338 472.508,178.672 473.5,178.5C 474.09,179.766 474.59,181.099 475,182.5C 475.887,200.891 475.22,219.224 473,237.5C 472.381,240.032 471.381,242.365 470,244.5C 453.316,231.482 438.316,216.815 425,200.5C 419.227,190.184 415.227,179.184 413,167.5C 407.794,132.321 404.294,96.9878 402.5,61.5C 402.028,58.6421 403.028,56.6421 405.5,55.5C 416.812,53.2709 428.146,51.1043 439.5,49C 442.039,48.2042 444.372,48.3709 446.5,49.5 Z"/></g>
<g><path style="opacity:1" fill="#8c8b89" d="M 606.5,96.5 C 606.806,99.3854 606.473,102.052 605.5,104.5C 605.663,102.143 605.497,99.8098 605,97.5C 604.667,98.8333 604.333,100.167 604,101.5C 603.667,101.167 603.333,100.833 603,100.5C 601.74,127.174 598.24,153.674 592.5,180C 592.387,181.699 593.053,182.866 594.5,183.5C 594.672,184.492 594.338,185.158 593.5,185.5C 592.791,184.596 591.791,184.263 590.5,184.5C 588.542,190.083 586.875,195.749 585.5,201.5C 584.5,201.5 583.5,201.5 582.5,201.5C 581.531,207.972 577.865,211.472 571.5,212C 582.453,197.594 589.12,181.428 591.5,163.5C 590.5,163.5 589.5,163.5 588.5,163.5C 593.962,128.04 597.295,92.3736 598.5,56.5C 595.933,56.2785 593.599,55.6118 591.5,54.5C 592.239,54.631 592.906,54.4643 593.5,54C 590.126,53.479 587.126,52.1457 584.5,50C 582.19,49.5034 579.857,49.3367 577.5,49.5C 577.64,47.8762 576.973,46.7096 575.5,46C 576.5,45.8333 577.5,45.6667 578.5,45.5C 587.451,47.8732 596.284,50.5399 605,53.5C 604.912,55.7982 605.079,58.2982 605.5,61C 605.624,63.59 604.958,65.9233 603.5,68C 604,68.5 604.5,69 605,69.5C 605.17,78.676 605.67,87.676 606.5,96.5 Z"/></g>
<g><path style="opacity:1" fill="#8d8d89" d="M 501.5,65.5 C 502.275,67.3881 502.275,69.3881 501.5,71.5C 498.209,79.3217 492.209,82.8217 483.5,82C 482.748,82.6708 482.414,83.5041 482.5,84.5C 484.051,87.5628 486.218,90.2295 489,92.5C 489.913,96.5225 491.413,100.189 493.5,103.5C 495.429,103.231 497.095,103.731 498.5,105C 496.19,105.497 493.857,105.663 491.5,105.5C 486.125,103.384 480.458,102.55 474.5,103C 468.342,110.806 463.509,119.306 460,128.5C 456.161,131.491 453.328,135.158 451.5,139.5C 449.732,143.044 448.898,147.044 449,151.5C 447.969,145.398 447.136,139.398 446.5,133.5C 448.853,118.437 454.52,104.77 463.5,92.5C 460.042,89.5437 456.708,86.3771 453.5,83C 456.544,83.6647 459.71,84.1647 463,84.5C 464.5,84.1667 466,83.8333 467.5,83.5C 465.781,81.6478 463.781,80.3145 461.5,79.5C 462.239,79.631 462.906,79.4643 463.5,79C 460.29,76.896 456.957,75.0627 453.5,73.5C 452.494,72.6043 452.494,71.9377 453.5,71.5C 458.463,73.5444 463.296,75.8777 468,78.5C 469.03,78.1639 469.53,77.4972 469.5,76.5C 474.114,77.5502 478.78,77.7168 483.5,77C 488.612,76.3667 492.445,73.8667 495,69.5C 495.8,58.4836 496.8,58.1502 498,68.5C 499.039,67.2899 500.206,66.2899 501.5,65.5 Z"/></g>
<g><path style="opacity:1" fill="#0e0d0b" d="M 477.5,95.5 C 479.795,94.0719 481.795,94.5719 483.5,97C 481.16,97.7484 479.16,97.2484 477.5,95.5 Z"/></g>
<g><path style="opacity:1" fill="#969493" d="M 606.5,96.5 C 605.67,87.676 605.17,78.676 605,69.5C 604.5,69 604,68.5 603.5,68C 604.958,65.9233 605.624,63.59 605.5,61C 605.079,58.2982 604.912,55.7982 605,53.5C 596.284,50.5399 587.451,47.8732 578.5,45.5C 577.5,45.6667 576.5,45.8333 575.5,46C 576.973,46.7096 577.64,47.8762 577.5,49.5C 579.857,49.3367 582.19,49.5034 584.5,50C 587.126,52.1457 590.126,53.479 593.5,54C 592.906,54.4643 592.239,54.631 591.5,54.5C 568.833,50.7336 546.166,46.9002 523.5,43C 514.905,41.3672 506.238,40.5338 497.5,40.5C 499.969,39.6829 502.635,39.1829 505.5,39C 487.214,38.5847 469.214,40.2513 451.5,44C 449.999,45.2515 448.332,46.2515 446.5,47C 449.113,48.0712 449.113,48.9045 446.5,49.5C 444.372,48.3709 442.039,48.2042 439.5,49C 428.146,51.1043 416.812,53.2709 405.5,55.5C 403.07,54.3467 403.07,53.3467 405.5,52.5C 411.214,52.3364 416.381,50.6697 421,47.5C 422.978,48.8163 424.478,48.3163 425.5,46C 421.538,46.1053 417.538,46.4386 413.5,47C 412.328,47.4186 411.328,48.0853 410.5,49C 405.031,49.2445 399.698,50.0778 394.5,51.5C 395.501,66.899 396.668,82.2323 398,97.5C 398.333,97.8333 398.667,98.1667 399,98.5C 399.635,97.0337 400.469,95.7003 401.5,94.5C 401.122,86.6941 400.789,78.6941 400.5,70.5C 400.667,66.1667 400.833,61.8333 401,57.5C 401.21,59.0581 401.71,60.3915 402.5,61.5C 404.294,96.9878 407.794,132.321 413,167.5C 415.227,179.184 419.227,190.184 425,200.5C 438.316,216.815 453.316,231.482 470,244.5C 471.381,242.365 472.381,240.032 473,237.5C 475.22,219.224 475.887,200.891 475,182.5C 474.59,181.099 474.09,179.766 473.5,178.5C 473.435,178.062 473.601,177.728 474,177.5C 475,178.167 476,178.833 477,179.5C 477.333,189.167 477.667,198.833 478,208.5C 480.8,202.859 481.633,197.026 480.5,191C 481.966,186.761 483.799,182.594 486,178.5C 486.49,179.793 486.657,181.127 486.5,182.5C 485.321,192.959 483.488,203.293 481,213.5C 481.356,224.435 480.023,235.102 477,245.5C 475.978,246.354 475.145,247.354 474.5,248.5C 482.535,255.869 490.868,262.869 499.5,269.5C 500.398,270.158 501.398,270.824 502.5,271.5C 497.056,273.891 493.556,272.224 492,266.5C 490.829,265.107 489.329,264.273 487.5,264C 484.86,259.357 481.026,256.191 476,254.5C 475.729,251.728 474.229,250.062 471.5,249.5C 474.136,247.936 473.969,246.603 471,245.5C 470.612,246.428 469.945,247.095 469,247.5C 463.558,244.393 459.058,240.226 455.5,235C 444.908,226.964 435.075,218.13 426,208.5C 425.562,205.624 424.562,202.957 423,200.5C 419.471,195.934 416.305,191.101 413.5,186C 414.059,185.275 414.392,184.442 414.5,183.5C 413.028,177.362 411.695,171.195 410.5,165C 408.232,160.967 406.065,156.8 404,152.5C 404.462,159.437 405.628,166.27 407.5,173C 406.978,173.561 406.645,174.228 406.5,175C 408.474,181.409 411.141,187.576 414.5,193.5C 413.572,194.768 413.405,196.101 414,197.5C 415.433,200.598 417.266,203.431 419.5,206C 419.43,206.765 419.097,207.265 418.5,207.5C 414.333,202.51 411.167,196.844 409,190.5C 405.697,178.985 403.03,167.319 401,155.5C 396.032,120.059 393.198,84.5588 392.5,49C 427.958,40.6015 463.791,34.4348 500,30.5C 536.781,34.8246 573.281,40.8246 609.5,48.5C 608.819,64.517 607.819,80.517 606.5,96.5 Z"/></g>
<g><path style="opacity:1" fill="#8b8987" d="M 405.5,55.5 C 403.028,56.6421 402.028,58.6421 402.5,61.5C 401.71,60.3915 401.21,59.0581 401,57.5C 400.833,61.8333 400.667,66.1667 400.5,70.5C 400.789,78.6941 401.122,86.6941 401.5,94.5C 400.469,95.7003 399.635,97.0337 399,98.5C 398.667,98.1667 398.333,97.8333 398,97.5C 396.668,82.2323 395.501,66.899 394.5,51.5C 399.698,50.0778 405.031,49.2445 410.5,49C 411.328,48.0853 412.328,47.4186 413.5,47C 417.538,46.4386 421.538,46.1053 425.5,46C 424.478,48.3163 422.978,48.8163 421,47.5C 416.381,50.6697 411.214,52.3364 405.5,52.5C 403.07,53.3467 403.07,54.3467 405.5,55.5 Z"/></g>
<g><path style="opacity:1" fill="#a3a2a0" d="M 497.5,40.5 C 481.689,41.8574 466.022,44.1908 450.5,47.5C 448.289,51.4236 445.956,55.257 443.5,59C 444.196,60.8928 445.03,62.7262 446,64.5C 447.667,65.8333 449.333,65.8333 451,64.5C 452.136,60.7568 453.47,57.0901 455,53.5C 455.638,54.6086 456.138,55.7753 456.5,57C 454.648,60.649 454.148,64.4823 455,68.5C 459.582,71.6371 464.415,74.3038 469.5,76.5C 469.53,77.4972 469.03,78.1639 468,78.5C 463.296,75.8777 458.463,73.5444 453.5,71.5C 452.494,71.9377 452.494,72.6043 453.5,73.5C 456.957,75.0627 460.29,76.896 463.5,79C 462.906,79.4643 462.239,79.631 461.5,79.5C 458.189,79.0909 455.189,77.9242 452.5,76C 449.473,72.7279 446.306,69.5613 443,66.5C 440.755,63.1097 439.755,59.443 440,55.5C 442.037,53.2941 444.203,51.2941 446.5,49.5C 449.113,48.9045 449.113,48.0712 446.5,47C 448.332,46.2515 449.999,45.2515 451.5,44C 469.214,40.2513 487.214,38.5847 505.5,39C 502.635,39.1829 499.969,39.6829 497.5,40.5 Z"/></g>
<g><path style="opacity:1" fill="#bcbcbc" d="M 501.5,71.5 C 502.275,69.3881 502.275,67.3881 501.5,65.5C 502.504,64.3172 503.338,62.9839 504,61.5C 504.333,57.8333 504.667,54.1667 505,50.5C 509.287,58.5886 508.12,65.5886 501.5,71.5 Z"/></g>
<g><path style="opacity:1" fill="#a8a8a6" d="M 482.5,84.5 C 488.117,89.7146 493.283,95.3813 498,101.5C 499.009,103.025 499.509,104.692 499.5,106.5C 492.492,106.334 485.492,106.5 478.5,107C 476.081,110.422 474.748,114.256 474.5,118.5C 473.924,122.268 472.758,125.935 471,129.5C 470.169,142.817 469.669,142.817 469.5,129.5C 470.944,121.663 473.111,113.996 476,106.5C 481.072,105.529 486.238,105.195 491.5,105.5C 493.857,105.663 496.19,105.497 498.5,105C 497.095,103.731 495.429,103.231 493.5,103.5C 491.413,100.189 489.913,96.5225 489,92.5C 486.218,90.2295 484.051,87.5628 482.5,84.5 Z"/></g>
<g><path style="opacity:1" fill="#060605" d="M 491.5,105.5 C 486.238,105.195 481.072,105.529 476,106.5C 473.111,113.996 470.944,121.663 469.5,129.5C 468.812,134.092 467.812,138.759 466.5,143.5C 466.697,145.682 467.364,147.682 468.5,149.5C 467.963,150.741 467.296,151.908 466.5,153C 468.196,159.255 470.196,165.422 472.5,171.5C 472.457,172.416 472.124,173.083 471.5,173.5C 464.613,172.486 458.78,169.486 454,164.5C 450.999,156.345 450.165,148.012 451.5,139.5C 453.328,135.158 456.161,131.491 460,128.5C 463.509,119.306 468.342,110.806 474.5,103C 480.458,102.55 486.125,103.384 491.5,105.5 Z"/></g>
<g><path style="opacity:1" fill="#9f9e9c" d="M 605.5,104.5 C 604.035,131.153 600.369,157.487 594.5,183.5C 593.053,182.866 592.387,181.699 592.5,180C 598.24,153.674 601.74,127.174 603,100.5C 603.333,100.833 603.667,101.167 604,101.5C 604.333,100.167 604.667,98.8333 605,97.5C 605.497,99.8098 605.663,102.143 605.5,104.5 Z"/></g>
<g><path style="opacity:1" fill="#9a9996" d="M 475.5,129.5 C 476.29,130.794 477.29,131.961 478.5,133C 495.646,139.036 513.313,142.036 531.5,142C 535.177,143.174 538.844,144.341 542.5,145.5C 545.148,145.033 547.481,143.866 549.5,142C 553.211,141.175 556.878,141.341 560.5,142.5C 557.415,147.973 552.748,149.973 546.5,148.5C 540.954,148.551 535.954,147.051 531.5,144C 517.79,143.046 504.123,141.88 490.5,140.5C 489.808,141.025 489.308,141.692 489,142.5C 488.691,141.234 488.191,140.067 487.5,139C 481.79,138.153 477.457,135.319 474.5,130.5C 474.624,129.893 474.957,129.56 475.5,129.5 Z"/></g>
<g><path style="opacity:1" fill="#8b8986" d="M 474.5,118.5 C 474.244,122.269 474.577,125.936 475.5,129.5C 474.957,129.56 474.624,129.893 474.5,130.5C 477.457,135.319 481.79,138.153 487.5,139C 488.191,140.067 488.691,141.234 489,142.5C 489.308,141.692 489.808,141.025 490.5,140.5C 504.123,141.88 517.79,143.046 531.5,144C 535.954,147.051 540.954,148.551 546.5,148.5C 546.196,149.15 545.863,149.817 545.5,150.5C 547.078,151.298 548.744,151.798 550.5,152C 548.567,152.251 546.734,152.751 545,153.5C 544.823,160.651 543.823,167.651 542,174.5C 538.312,176.989 536.145,180.322 535.5,184.5C 534.778,184.082 534.278,183.416 534,182.5C 533.402,186.053 534.069,189.386 536,192.5C 539.743,194.651 543.077,197.318 546,200.5C 546.817,203.964 546.483,207.298 545,210.5C 544.432,207.542 543.265,204.875 541.5,202.5C 537.75,200.916 534.083,200.582 530.5,201.5C 528.844,200.854 527.177,200.187 525.5,199.5C 524.584,199.543 523.917,199.876 523.5,200.5C 522.883,202.321 522.716,204.321 523,206.5C 521.725,202.724 519.225,200.057 515.5,198.5C 514.702,198.957 514.369,199.624 514.5,200.5C 510.268,199.702 506.434,198.035 503,195.5C 500.865,189.687 499.698,183.687 499.5,177.5C 496.161,177.89 492.827,178.39 489.5,179C 488.837,180.518 487.837,181.685 486.5,182.5C 486.657,181.127 486.49,179.793 486,178.5C 483.799,182.594 481.966,186.761 480.5,191C 481.633,197.026 480.8,202.859 478,208.5C 477.667,198.833 477.333,189.167 477,179.5C 476,178.833 475,178.167 474,177.5C 473.601,177.728 473.435,178.062 473.5,178.5C 472.508,178.672 471.842,178.338 471.5,177.5C 471.835,176.336 471.835,175.003 471.5,173.5C 472.124,173.083 472.457,172.416 472.5,171.5C 470.196,165.422 468.196,159.255 466.5,153C 467.296,151.908 467.963,150.741 468.5,149.5C 467.364,147.682 466.697,145.682 466.5,143.5C 467.812,138.759 468.812,134.092 469.5,129.5C 469.669,142.817 470.169,142.817 471,129.5C 472.758,125.935 473.924,122.268 474.5,118.5 Z"/></g>
<g><path style="opacity:1" fill="#1e1d1a" d="M 511.5,158.5 C 512.5,158.5 513.5,158.5 514.5,158.5C 514.5,159.5 514.5,160.5 514.5,161.5C 513.5,161.5 512.5,161.5 511.5,161.5C 511.5,160.5 511.5,159.5 511.5,158.5 Z"/></g>
<g><path style="opacity:1" fill="#0b0a0a" d="M 511.5,163.5 C 512.586,163.62 513.253,164.287 513.5,165.5C 512.905,167.857 511.905,170.023 510.5,172C 504.311,174.638 497.978,175.805 491.5,175.5C 496.695,168.908 503.362,164.908 511.5,163.5 Z"/></g>
<g><path style="opacity:1" fill="#8c8c88" d="M 461.5,174.5 C 458.478,178.521 454.811,181.855 450.5,184.5C 449.522,187.268 449.855,189.934 451.5,192.5C 450.778,192.918 450.278,193.584 450,194.5C 448.482,191.464 446.982,188.464 445.5,185.5C 446.642,179.031 449.642,173.697 454.5,169.5C 456.51,171.171 458.843,171.838 461.5,171.5C 461.5,172.5 461.5,173.5 461.5,174.5 Z"/></g>
<g><path style="opacity:1" fill="#030303" d="M 514.5,200.5 C 517.552,202.056 519.218,204.556 519.5,208C 515.397,221.245 511.064,234.412 506.5,247.5C 509.034,248.777 511.534,248.777 514,247.5C 516.391,239.309 518.058,230.976 519,222.5C 521.306,216.554 524.139,210.888 527.5,205.5C 526.388,203.581 525.054,201.914 523.5,200.5C 523.917,199.876 524.584,199.543 525.5,199.5C 527.177,200.187 528.844,200.854 530.5,201.5C 533.671,203.505 537.171,204.838 541,205.5C 543.172,215.912 542.839,226.246 540,236.5C 539.215,238.286 538.049,239.786 536.5,241C 525.335,250.001 514.335,259.168 503.5,268.5C 502.292,269.234 500.959,269.567 499.5,269.5C 490.868,262.869 482.535,255.869 474.5,248.5C 475.145,247.354 475.978,246.354 477,245.5C 480.023,235.102 481.356,224.435 481,213.5C 483.488,203.293 485.321,192.959 486.5,182.5C 487.837,181.685 488.837,180.518 489.5,179C 492.827,178.39 496.161,177.89 499.5,177.5C 499.698,183.687 500.865,189.687 503,195.5C 506.434,198.035 510.268,199.702 514.5,200.5 Z"/></g>
<g><path style="opacity:1" fill="#a1a19e" d="M 446.5,133.5 C 447.136,139.398 447.969,145.398 449,151.5C 448.898,147.044 449.732,143.044 451.5,139.5C 450.165,148.012 450.999,156.345 454,164.5C 458.78,169.486 464.613,172.486 471.5,173.5C 471.835,175.003 471.835,176.336 471.5,177.5C 467.993,177.08 464.659,176.08 461.5,174.5C 461.5,173.5 461.5,172.5 461.5,171.5C 458.843,171.838 456.51,171.171 454.5,169.5C 449.642,173.697 446.642,179.031 445.5,185.5C 446.982,188.464 448.482,191.464 450,194.5C 450.278,193.584 450.778,192.918 451.5,192.5C 453.172,195.022 454.672,197.688 456,200.5C 461.221,204.674 466.054,209.174 470.5,214C 470.167,214.5 469.833,215 469.5,215.5C 463.701,212.198 458.034,208.698 452.5,205C 448.702,199.908 445.535,194.408 443,188.5C 442.333,186.167 442.333,183.833 443,181.5C 446.331,176.507 448.831,171.174 450.5,165.5C 445.773,155.254 444.439,144.588 446.5,133.5 Z"/></g>
<g><path style="opacity:1" fill="#a2a2a1" d="M 523.5,200.5 C 525.054,201.914 526.388,203.581 527.5,205.5C 524.139,210.888 521.306,216.554 519,222.5C 518.058,230.976 516.391,239.309 514,247.5C 511.534,248.777 509.034,248.777 506.5,247.5C 511.064,234.412 515.397,221.245 519.5,208C 519.218,204.556 517.552,202.056 514.5,200.5C 514.369,199.624 514.702,198.957 515.5,198.5C 519.225,200.057 521.725,202.724 523,206.5C 522.716,204.321 522.883,202.321 523.5,200.5 Z"/></g>
<g><path style="opacity:1" fill="#898985" d="M 499.5,269.5 C 500.959,269.567 502.292,269.234 503.5,268.5C 503.843,270.225 504.843,270.725 506.5,270C 512.86,264.706 519.027,259.206 525,253.5C 525.333,253.833 525.667,254.167 526,254.5C 527.667,252.5 529.333,250.5 531,248.5C 531.333,248.833 531.667,249.167 532,249.5C 533.268,247.283 534.768,245.283 536.5,243.5C 538.23,244.026 539.564,245.026 540.5,246.5C 536.694,249.395 533.36,252.728 530.5,256.5C 527.554,257.306 524.888,258.639 522.5,260.5C 520.661,263.75 518.328,266.583 515.5,269C 511.271,270.896 507.604,273.563 504.5,277C 499.447,279.004 495.613,277.504 493,272.5C 492.667,272.833 492.333,273.167 492,273.5C 490.829,272.107 489.329,271.273 487.5,271C 486.663,269.989 486.33,268.822 486.5,267.5C 482.869,267.067 481.536,265.234 482.5,262C 479.294,259.966 475.96,258.133 472.5,256.5C 463.001,248.5 454.001,240 445.5,231C 444.451,230.508 443.451,230.674 442.5,231.5C 440.356,227.859 437.689,224.692 434.5,222C 435.711,221.107 435.711,220.274 434.5,219.5C 429.941,216.262 425.607,212.762 421.5,209C 420.563,208.308 419.897,208.475 419.5,209.5C 418.662,209.158 418.328,208.492 418.5,207.5C 419.097,207.265 419.43,206.765 419.5,206C 417.266,203.431 415.433,200.598 414,197.5C 413.405,196.101 413.572,194.768 414.5,193.5C 411.141,187.576 408.474,181.409 406.5,175C 406.645,174.228 406.978,173.561 407.5,173C 405.628,166.27 404.462,159.437 404,152.5C 406.065,156.8 408.232,160.967 410.5,165C 411.695,171.195 413.028,177.362 414.5,183.5C 414.392,184.442 414.059,185.275 413.5,186C 416.305,191.101 419.471,195.934 423,200.5C 424.562,202.957 425.562,205.624 426,208.5C 435.075,218.13 444.908,226.964 455.5,235C 459.058,240.226 463.558,244.393 469,247.5C 469.945,247.095 470.612,246.428 471,245.5C 473.969,246.603 474.136,247.936 471.5,249.5C 474.229,250.062 475.729,251.728 476,254.5C 481.026,256.191 484.86,259.357 487.5,264C 489.329,264.273 490.829,265.107 492,266.5C 493.556,272.224 497.056,273.891 502.5,271.5C 501.398,270.824 500.398,270.158 499.5,269.5 Z"/></g>
<g><path style="opacity:1" fill="#959592" d="M 588.5,163.5 C 589.5,163.5 590.5,163.5 591.5,163.5C 589.12,181.428 582.453,197.594 571.5,212C 577.865,211.472 581.531,207.972 582.5,201.5C 583.5,201.5 584.5,201.5 585.5,201.5C 586.875,195.749 588.542,190.083 590.5,184.5C 591.791,184.263 592.791,184.596 593.5,185.5C 589.924,197.988 583.758,208.988 575,218.5C 551.202,241.472 526.369,263.138 500.5,283.5C 479.059,266.229 458.059,248.396 437.5,230C 431.291,223.295 425.291,216.462 419.5,209.5C 419.897,208.475 420.563,208.308 421.5,209C 425.607,212.762 429.941,216.262 434.5,219.5C 435.711,220.274 435.711,221.107 434.5,222C 437.689,224.692 440.356,227.859 442.5,231.5C 443.451,230.674 444.451,230.508 445.5,231C 454.001,240 463.001,248.5 472.5,256.5C 475.96,258.133 479.294,259.966 482.5,262C 481.536,265.234 482.869,267.067 486.5,267.5C 486.33,268.822 486.663,269.989 487.5,271C 489.329,271.273 490.829,272.107 492,273.5C 492.333,273.167 492.667,272.833 493,272.5C 495.613,277.504 499.447,279.004 504.5,277C 507.604,273.563 511.271,270.896 515.5,269C 518.328,266.583 520.661,263.75 522.5,260.5C 524.888,258.639 527.554,257.306 530.5,256.5C 533.36,252.728 536.694,249.395 540.5,246.5C 539.564,245.026 538.23,244.026 536.5,243.5C 534.768,245.283 533.268,247.283 532,249.5C 531.667,249.167 531.333,248.833 531,248.5C 529.333,250.5 527.667,252.5 526,254.5C 525.667,254.167 525.333,253.833 525,253.5C 519.027,259.206 512.86,264.706 506.5,270C 504.843,270.725 503.843,270.225 503.5,268.5C 514.335,259.168 525.335,250.001 536.5,241C 538.049,239.786 539.215,238.286 540,236.5C 542.839,226.246 543.172,215.912 541,205.5C 537.171,204.838 533.671,203.505 530.5,201.5C 534.083,200.582 537.75,200.916 541.5,202.5C 543.265,204.875 544.432,207.542 545,210.5C 546.483,207.298 546.817,203.964 546,200.5C 543.077,197.318 539.743,194.651 536,192.5C 534.069,189.386 533.402,186.053 534,182.5C 534.278,183.416 534.778,184.082 535.5,184.5C 536.514,187.689 538.18,190.522 540.5,193C 543.687,194.866 546.853,196.699 550,198.5C 549.493,207.549 548.327,216.549 546.5,225.5C 546.833,227.167 547.167,228.833 547.5,230.5C 551.851,226.314 556.351,222.314 561,218.5C 577.068,203.698 586.234,185.365 588.5,163.5 Z"/></g>
<g><path style="opacity:1" fill="#a0a09f" d="M 637.5,338.5 C 637.5,337.5 637.5,336.5 637.5,335.5C 643.206,335.829 648.872,335.495 654.5,334.5C 654.291,333.914 653.957,333.414 653.5,333C 633.825,332.167 614.158,332.334 594.5,333.5C 594.709,334.086 595.043,334.586 595.5,335C 602.833,335.333 610.167,335.667 617.5,336C 618.381,336.708 619.047,337.542 619.5,338.5C 610.5,338.5 601.5,338.5 592.5,338.5C 592.5,335.5 592.5,332.5 592.5,329.5C 614.167,329.5 635.833,329.5 657.5,329.5C 657.5,332.5 657.5,335.5 657.5,338.5C 650.833,338.5 644.167,338.5 637.5,338.5 Z"/></g>
<g><path style="opacity:1" fill="#989895" d="M 489.5,396.5 C 490.376,396.369 491.043,396.702 491.5,397.5C 484.058,398.864 476.724,398.364 469.5,396C 461.172,391.011 455.005,384.178 451,375.5C 450.557,368.144 450.89,360.811 452,353.5C 455.017,351.658 456.517,348.991 456.5,345.5C 457.552,345.649 458.552,345.483 459.5,345C 462.146,342.21 464.479,339.377 466.5,336.5C 470.131,336.84 473.464,336.006 476.5,334C 484.662,333.077 492.662,333.744 500.5,336C 503.128,339.147 506.462,340.98 510.5,341.5C 508.795,337.309 505.628,334.642 501,333.5C 491.612,331.471 482.112,330.971 472.5,332C 467.198,334.317 462.198,337.15 457.5,340.5C 457.709,341.086 458.043,341.586 458.5,342C 456.465,342.599 454.799,342.099 453.5,340.5C 461.832,332.261 471.998,327.927 484,327.5C 490.648,327.893 497.148,329.06 503.5,331C 507.44,332.886 510.94,335.386 514,338.5C 513.536,341.477 511.702,343.477 508.5,344.5C 491.182,332.74 475.016,334.074 460,348.5C 453.02,359.904 452.686,371.571 459,383.5C 466.844,393.17 477.011,397.503 489.5,396.5 Z"/></g>
<g><path style="opacity:1" fill="#92908f" d="M 584.5,372.5 C 583.876,372.917 583.543,373.584 583.5,374.5C 588.072,386.629 584.406,395.129 572.5,400C 561.067,402.268 549.733,401.934 538.5,399C 536.021,398.121 534.021,396.621 532.5,394.5C 534.074,393.369 535.741,393.202 537.5,394C 548.202,399.695 559.536,401.028 571.5,398C 575.329,396.669 577.995,394.169 579.5,390.5C 579.36,388.97 578.693,387.97 577.5,387.5C 578.762,383.482 577.762,379.982 574.5,377C 564.996,373.54 555.329,370.54 545.5,368C 530.597,361.954 526.764,351.787 534,337.5C 539.231,331.802 545.731,328.635 553.5,328C 563.965,326.971 573.965,328.637 583.5,333C 584.357,333.689 585.023,334.522 585.5,335.5C 584.42,337.996 583.086,340.33 581.5,342.5C 569.846,335.739 557.846,334.906 545.5,340C 538.85,345.624 538.85,351.291 545.5,357C 555.015,360.463 564.682,363.463 574.5,366C 578.411,367.444 581.744,369.611 584.5,372.5 Z"/></g>
<g><path style="opacity:1" fill="#8e8b8a" d="M 637.5,338.5 C 635.167,338.5 632.833,338.5 630.5,338.5C 630.831,360.34 630.497,382.006 629.5,403.5C 629.667,383.164 629.5,362.831 629,342.5C 627.87,361.444 627.037,380.444 626.5,399.5C 625.167,400.833 623.833,400.833 622.5,399.5C 621.667,380.175 621.167,360.842 621,341.5C 620.768,340.263 620.268,339.263 619.5,338.5C 619.047,337.542 618.381,336.708 617.5,336C 610.167,335.667 602.833,335.333 595.5,335C 595.043,334.586 594.709,334.086 594.5,333.5C 614.158,332.334 633.825,332.167 653.5,333C 653.957,333.414 654.291,333.914 654.5,334.5C 648.872,335.495 643.206,335.829 637.5,335.5C 637.5,336.5 637.5,337.5 637.5,338.5 Z"/></g>
<g><path style="opacity:1" fill="#222221" d="M 592.5,338.5 C 601.5,338.5 610.5,338.5 619.5,338.5C 619.5,360.167 619.5,381.833 619.5,403.5C 618.503,382.34 618.169,361.007 618.5,339.5C 609.651,339.826 600.984,339.493 592.5,338.5 Z"/></g>
<g><path style="opacity:1" fill="#aba9a8" d="M 241.5,329.5 C 231.341,330.33 221.008,330.83 210.5,331C 209.584,331.374 208.75,331.874 208,332.5C 207.333,354.833 207.333,377.167 208,399.5C 208.5,400 209,400.5 209.5,401C 220.833,401.333 232.167,401.667 243.5,402C 244.737,402.232 245.737,402.732 246.5,403.5C 232.833,403.5 219.167,403.5 205.5,403.5C 205.5,378.833 205.5,354.167 205.5,329.5C 217.5,329.5 229.5,329.5 241.5,329.5 Z"/></g>
<g><path style="opacity:1" fill="#b8b5b6" d="M 289.5,330.5 C 290.498,354.328 290.831,378.328 290.5,402.5C 307.342,402.17 324.008,402.503 340.5,403.5C 323.5,403.5 306.5,403.5 289.5,403.5C 289.5,379.167 289.5,354.833 289.5,330.5 Z"/></g>
<g><path style="opacity:1" fill="#979793" d="M 721.5,396.5 C 721.987,395.527 722.487,394.527 723,393.5C 723.37,398.314 725.87,400.648 730.5,400.5C 730.657,399.127 730.49,397.793 730,396.5C 721.907,384.392 715.573,371.392 711,357.5C 706.736,349.532 702.569,341.532 698.5,333.5C 695.834,332.262 693.168,332.262 690.5,333.5C 688.215,337.597 686.715,341.931 686,346.5C 685.101,348.516 683.767,350.183 682,351.5C 681.268,355.115 679.935,358.448 678,361.5C 677.202,363.259 677.369,364.926 678.5,366.5C 680.048,363.993 681.048,364.326 681.5,367.5C 679.92,370.659 678.92,373.993 678.5,377.5C 689.5,377.5 700.5,377.5 711.5,377.5C 714.087,379.702 716.42,382.202 718.5,385C 717.552,385.483 716.552,385.649 715.5,385.5C 701.496,385.333 687.496,385.5 673.5,386C 670.485,391.698 667.485,397.365 664.5,403C 661.183,403.498 657.85,403.665 654.5,403.5C 665.476,378.714 677.142,354.214 689.5,330C 693.211,329.175 696.878,329.341 700.5,330.5C 712.545,354.292 724.211,378.292 735.5,402.5C 731.833,403.833 728.167,403.833 724.5,402.5C 723.117,400.68 722.117,398.68 721.5,396.5 Z"/></g>
<g><path style="opacity:1" fill="#8c8c88" d="M 721.5,396.5 C 719.784,392.74 717.784,389.073 715.5,385.5C 716.552,385.649 717.552,385.483 718.5,385C 716.42,382.202 714.087,379.702 711.5,377.5C 706.561,364.952 701.061,352.619 695,340.5C 690.47,349.561 685.97,358.561 681.5,367.5C 681.048,364.326 680.048,363.993 678.5,366.5C 677.369,364.926 677.202,363.259 678,361.5C 679.935,358.448 681.268,355.115 682,351.5C 683.767,350.183 685.101,348.516 686,346.5C 686.715,341.931 688.215,337.597 690.5,333.5C 693.168,332.262 695.834,332.262 698.5,333.5C 702.569,341.532 706.736,349.532 711,357.5C 715.573,371.392 721.907,384.392 730,396.5C 730.49,397.793 730.657,399.127 730.5,400.5C 725.87,400.648 723.37,398.314 723,393.5C 722.487,394.527 721.987,395.527 721.5,396.5 Z"/></g>
<g><path style="opacity:1" fill="#050404" d="M 711.5,377.5 C 700.5,377.5 689.5,377.5 678.5,377.5C 678.92,373.993 679.92,370.659 681.5,367.5C 685.97,358.561 690.47,349.561 695,340.5C 701.061,352.619 706.561,364.952 711.5,377.5 Z"/></g>
<g><path style="opacity:1" fill="#8e8d8b" d="M 241.5,329.5 C 250.859,329.451 259.025,332.451 266,338.5C 271.084,349.181 268.917,358.015 259.5,365C 271.036,369.906 275.203,378.406 272,390.5C 268.613,396.622 263.446,400.455 256.5,402C 253.173,402.61 249.839,403.11 246.5,403.5C 245.737,402.732 244.737,402.232 243.5,402C 232.167,401.667 220.833,401.333 209.5,401C 209,400.5 208.5,400 208,399.5C 207.333,377.167 207.333,354.833 208,332.5C 208.75,331.874 209.584,331.374 210.5,331C 221.008,330.83 231.341,330.33 241.5,329.5 Z"/></g>
<g><path style="opacity:1" fill="#010101" d="M 216.5,370.5 C 228.171,370.333 239.838,370.5 251.5,371C 261.521,373.875 264.354,380.041 260,389.5C 258.048,391.894 255.548,393.394 252.5,394C 240.505,394.5 228.505,394.667 216.5,394.5C 216.5,386.5 216.5,378.5 216.5,370.5 Z"/></g>
<g><path style="opacity:1" fill="#010101" d="M 216.5,338.5 C 228.229,338.088 239.896,338.588 251.5,340C 257.63,344.073 259.13,349.573 256,356.5C 254.421,358.041 252.587,359.208 250.5,360C 239.215,361.356 227.881,361.856 216.5,361.5C 216.5,353.833 216.5,346.167 216.5,338.5 Z"/></g>
<g><path style="opacity:1" fill="#929190" d="M 383.5,327.5 C 406.67,326.141 422.17,336.141 430,357.5C 432.451,387.55 418.618,403.55 388.5,405.5C 359.598,403 346.098,387.334 348,358.5C 349.99,348.521 355.157,340.688 363.5,335C 369.885,331.377 376.552,328.877 383.5,327.5 Z"/></g>
<g><path style="opacity:1" fill="#020201" d="M 384.5,336.5 C 411.32,337.48 422.487,351.147 418,377.5C 410.864,391.653 399.364,397.82 383.5,396C 363.929,391.037 355.762,378.537 359,358.5C 363.391,346.267 371.891,338.934 384.5,336.5 Z"/></g>
<g><path style="opacity:1" fill="#8e8c8c" d="M 299.5,329.5 C 300.497,350.994 300.831,372.66 300.5,394.5C 300.804,395.15 301.137,395.817 301.5,396.5C 314.483,397.499 327.483,397.832 340.5,397.5C 340.5,398.5 340.5,399.5 340.5,400.5C 324.452,400.818 308.452,400.485 292.5,399.5C 291.334,377.508 291.167,355.508 292,333.5C 294.084,330.967 296.084,330.967 298,333.5C 298.333,352.5 298.667,371.5 299,390.5C 299.5,370.169 299.667,349.836 299.5,329.5 Z"/></g>
<g><path style="opacity:1" fill="#a1a0a0" d="M 289.5,330.5 C 292.625,329.521 295.958,329.187 299.5,329.5C 299.667,349.836 299.5,370.169 299,390.5C 298.667,371.5 298.333,352.5 298,333.5C 296.084,330.967 294.084,330.967 292,333.5C 291.167,355.508 291.334,377.508 292.5,399.5C 308.452,400.485 324.452,400.818 340.5,400.5C 340.5,399.5 340.5,398.5 340.5,397.5C 327.483,397.832 314.483,397.499 301.5,396.5C 301.137,395.817 300.804,395.15 300.5,394.5C 314.504,394.333 328.504,394.5 342.5,395C 343.602,397.401 343.769,399.901 343,402.5C 342.329,403.252 341.496,403.586 340.5,403.5C 324.008,402.503 307.342,402.17 290.5,402.5C 290.831,378.328 290.498,354.328 289.5,330.5 Z"/></g>
<g><path style="opacity:1" fill="#8c8b89" d="M 489.5,396.5 C 493.377,395.359 497.377,394.192 501.5,393C 502.333,392.167 503.167,391.333 504,390.5C 504.5,384.175 504.666,377.842 504.5,371.5C 506.916,370.032 509.583,369.365 512.5,369.5C 512.901,377.585 512.401,385.585 511,393.5C 506.617,397.441 501.45,399.941 495.5,401C 481.549,403.66 468.882,401.16 457.5,393.5C 455.997,390.476 453.83,387.81 451,385.5C 450.027,383.608 449.36,381.608 449,379.5C 448.789,371.298 448.289,363.131 447.5,355C 449.259,350.797 451.592,346.964 454.5,343.5C 453.675,342.614 452.675,342.281 451.5,342.5C 451.833,341.5 452.5,340.833 453.5,340.5C 454.799,342.099 456.465,342.599 458.5,342C 458.043,341.586 457.709,341.086 457.5,340.5C 462.198,337.15 467.198,334.317 472.5,332C 482.112,330.971 491.612,331.471 501,333.5C 505.628,334.642 508.795,337.309 510.5,341.5C 506.462,340.98 503.128,339.147 500.5,336C 492.662,333.744 484.662,333.077 476.5,334C 473.464,336.006 470.131,336.84 466.5,336.5C 464.479,339.377 462.146,342.21 459.5,345C 458.552,345.483 457.552,345.649 456.5,345.5C 456.517,348.991 455.017,351.658 452,353.5C 450.89,360.811 450.557,368.144 451,375.5C 455.005,384.178 461.172,391.011 469.5,396C 476.724,398.364 484.058,398.864 491.5,397.5C 491.043,396.702 490.376,396.369 489.5,396.5 Z"/></g>
<g><path style="opacity:1" fill="#92928e" d="M 765.5,327.5 C 774.354,327.253 783.021,328.42 791.5,331C 798.803,333.687 799.303,337.52 793,342.5C 781.59,335.589 769.756,334.756 757.5,340C 752.617,345.058 752.284,350.391 756.5,356C 765.345,360.392 774.678,363.392 784.5,365C 799.721,369.941 804.221,379.774 798,394.5C 790.407,401.868 781.241,405.534 770.5,405.5C 760.484,405.496 751.15,402.996 742.5,398C 740.091,394.238 740.924,391.071 745,388.5C 757.2,396.869 770.367,398.702 784.5,394C 790.263,388.897 790.93,383.23 786.5,377C 775.24,373.135 763.906,369.469 752.5,366C 741.745,358.584 739.578,349.084 746,337.5C 751.426,331.871 757.926,328.538 765.5,327.5 Z"/></g>
<g><path style="opacity:1" fill="#a2a09e" d="M 619.5,338.5 C 620.268,339.263 620.768,340.263 621,341.5C 621.167,360.842 621.667,380.175 622.5,399.5C 623.833,400.833 625.167,400.833 626.5,399.5C 627.037,380.444 627.87,361.444 629,342.5C 629.5,362.831 629.667,383.164 629.5,403.5C 626.167,403.5 622.833,403.5 619.5,403.5C 619.5,381.833 619.5,360.167 619.5,338.5 Z"/></g>
<g><path style="opacity:1" fill="#989896" d="M 451.5,342.5 C 452.675,342.281 453.675,342.614 454.5,343.5C 451.592,346.964 449.259,350.797 447.5,355C 448.289,363.131 448.789,371.298 449,379.5C 449.36,381.608 450.027,383.608 451,385.5C 453.83,387.81 455.997,390.476 457.5,393.5C 468.882,401.16 481.549,403.66 495.5,401C 501.45,399.941 506.617,397.441 511,393.5C 512.401,385.585 512.901,377.585 512.5,369.5C 509.583,369.365 506.916,370.032 504.5,371.5C 504.5,369.833 504.5,368.167 504.5,366.5C 507.833,366.5 511.167,366.5 514.5,366.5C 514.819,376.749 514.486,386.916 513.5,397C 493.657,408.889 474.323,408.223 455.5,395C 443.61,382.526 440.444,368.026 446,351.5C 447.357,348.102 449.19,345.102 451.5,342.5 Z"/></g>
<g><path style="opacity:1" fill="#9b9b99" d="M 584.5,372.5 C 586.136,373.749 587.303,375.416 588,377.5C 590.309,391.716 584.476,400.55 570.5,404C 558.879,406.297 547.545,405.297 536.5,401C 533.274,399.894 530.607,398.061 528.5,395.5C 529.577,393.088 530.744,390.754 532,388.5C 544.592,396.831 558.092,398.664 572.5,394C 574.765,392.242 576.432,390.075 577.5,387.5C 578.693,387.97 579.36,388.97 579.5,390.5C 577.995,394.169 575.329,396.669 571.5,398C 559.536,401.028 548.202,399.695 537.5,394C 535.741,393.202 534.074,393.369 532.5,394.5C 534.021,396.621 536.021,398.121 538.5,399C 549.733,401.934 561.067,402.268 572.5,400C 584.406,395.129 588.072,386.629 583.5,374.5C 583.543,373.584 583.876,372.917 584.5,372.5 Z"/></g>
</svg>
